<svg viewBox="0 0 260 320" xmlns="http://www.w3.org/2000/svg" role="img" aria-label="Dashi, o marsupial mascote do jogo">
  <defs>
    <linearGradient id="furGrad" x1="0" y1="0" x2="0" y2="1">
      <stop offset="0%" stop-color="#F98C3D"/>
      <stop offset="100%" stop-color="#E56A1F"/>
    </linearGradient>
    <radialGradient id="shadowGrad" cx="50%" cy="50%" r="50%">
      <stop offset="0%" stop-color="#0B4F4A" stop-opacity="0.35"/>
      <stop offset="100%" stop-color="#0B4F4A" stop-opacity="0"/>
    </radialGradient>
  </defs>

  <ellipse cx="130" cy="300" rx="70" ry="14" fill="url(#shadowGrad)"/>

  <!-- cauda -->
  <path d="M186 210 C 235 205 250 165 235 130 C 224 106 200 108 198 128 C 214 130 220 155 205 175 C 195 188 186 196 178 205 Z" fill="#E56A1F"/>
  <path d="M198 128 C 200 122 210 118 218 122" stroke="#7A3D10" stroke-width="4" fill="none" stroke-linecap="round"/>

  <!-- pernas -->
  <rect x="96" y="228" width="30" height="55" rx="14" fill="url(#furGrad)"/>
  <rect x="140" y="228" width="30" height="55" rx="14" fill="url(#furGrad)"/>
  <ellipse cx="108" cy="292" rx="26" ry="14" fill="#3E6FA8"/>
  <ellipse cx="156" cy="292" rx="26" ry="14" fill="#3E6FA8"/>

  <!-- shorts -->
  <path d="M92 205 h96 v34 c0 10 -8 16 -18 16 h-14 l-8 -14 -8 14 h-14 c-10 0 -18 -6 -18 -16 Z" fill="#2E8F8A"/>
  <rect x="92" y="203" width="96" height="14" rx="7" fill="#256F6B"/>

  <!-- corpo / barriga -->
  <ellipse cx="140" cy="185" rx="58" ry="62" fill="url(#furGrad)"/>
  <ellipse cx="140" cy="195" rx="34" ry="40" fill="#FCE3C1"/>

  <!-- braços -->
  <path d="M84 160 C 60 168 48 195 58 218 C 63 228 78 226 80 214 C 74 200 78 182 96 172 Z" fill="url(#furGrad)"/>
  <path d="M196 160 C 220 168 232 195 222 218 C 217 228 202 226 200 214 C 206 200 202 182 184 172 Z" fill="url(#furGrad)"/>
  <circle cx="60" cy="220" r="12" fill="#FCE3C1"/>
  <circle cx="220" cy="220" r="12" fill="#FCE3C1"/>

  <!-- cabeça -->
  <ellipse cx="140" cy="100" rx="62" ry="58" fill="url(#furGrad)"/>

  <!-- orelhas -->
  <ellipse cx="90" cy="58" rx="20" ry="26" fill="url(#furGrad)" transform="rotate(-18 90 58)"/>
  <ellipse cx="190" cy="58" rx="20" ry="26" fill="url(#furGrad)" transform="rotate(18 190 58)"/>
  <ellipse cx="90" cy="60" rx="10" ry="15" fill="#FCE3C1" transform="rotate(-18 90 60)"/>
  <ellipse cx="190" cy="60" rx="10" ry="15" fill="#FCE3C1" transform="rotate(18 190 60)"/>

  <!-- tufo -->
  <path d="M118 44 C 122 20 132 8 140 6 C 148 8 158 20 162 44 C 152 36 128 36 118 44 Z" fill="#FFC94A"/>

  <!-- focinho -->
  <ellipse cx="140" cy="122" rx="34" ry="26" fill="#FCE3C1"/>
  <ellipse cx="140" cy="128" rx="10" ry="7" fill="#3A2410"/>

  <!-- olhos -->
  <circle cx="118" cy="98" r="14" fill="#FFFFFF"/>
  <circle cx="162" cy="98" r="14" fill="#FFFFFF"/>
  <circle cx="121" cy="100" r="7" fill="#2B2118"/>
  <circle cx="165" cy="100" r="7" fill="#2B2118"/>
  <circle cx="123" cy="97" r="2.2" fill="#FFFFFF"/>
  <circle cx="167" cy="97" r="2.2" fill="#FFFFFF"/>

  <!-- sorriso -->
  <path d="M124 132 Q140 144 156 132" stroke="#3A2410" stroke-width="4" fill="none" stroke-linecap="round"/>

  <!-- bochechas -->
  <circle cx="104" cy="118" r="8" fill="#F2762E" opacity="0.55"/>
  <circle cx="176" cy="118" r="8" fill="#F2762E" opacity="0.55"/>
</svg>
